# Rhino

g object_1
v 63.54718780517578 0 -23.8536262512207
v 63.54718780517578 2.5 -23.8536262512207
v 63.54718780517578 0 -26.39618873596191
v 63.54718780517578 2.5 -26.39618873596191
v 63.54718780517578 0 -26.39618873596191
v 63.54718780517578 2.5 -26.39618873596191
v 47.90283966064453 0 -26.39618873596191
v 47.90283966064453 2.5 -26.39618873596191
v 47.90283966064453 0 -26.39618873596191
v 47.90283966064453 2.5 -26.39618873596191
v 55.77173233032227 0 -34.30197525024414
v 55.77173233032227 2.5 -34.30197525024414
v 55.77173233032227 0 -34.30197525024414
v 55.77173233032227 2.5 -34.30197525024414
v 48.91910552978516 0 -34.30197525024414
v 48.91910552978516 2.5 -34.30197525024414
v 48.91910552978516 0 -34.30197525024414
v 48.91910552978516 2.5 -34.30197525024414
v 38.51951217651367 0 -23.8536262512207
v 38.51951217651367 2.5 -23.8536262512207
v 38.51951217651367 0 -23.8536262512207
v 38.51951217651367 2.5 -23.8536262512207
v 48.91910552978516 0 -13.4052791595459
v 48.91910552978516 2.5 -13.4052791595459
v 48.91910552978516 0 -13.4052791595459
v 48.91910552978516 2.5 -13.4052791595459
v 55.77173233032227 0 -13.4052791595459
v 55.77173233032227 2.5 -13.4052791595459
v 55.77173233032227 0 -13.4052791595459
v 55.77173233032227 2.5 -13.4052791595459
v 47.90283966064453 0 -21.31106376647949
v 47.90283966064453 2.5 -21.31106376647949
v 47.90283966064453 0 -21.31106376647949
v 47.90283966064453 2.5 -21.31106376647949
v 63.54718780517578 0 -21.31106376647949
v 63.54718780517578 2.5 -21.31106376647949
v 63.54718780517578 0 -21.31106376647949
v 63.54718780517578 2.5 -21.31106376647949
v 63.54718780517578 0 -23.8536262512207
v 63.54718780517578 2.5 -23.8536262512207
v 63.54718780517578 0 -23.8536262512207
v 63.54718780517578 0 -26.39618873596191
v 47.90283966064453 0 -26.39618873596191
v 55.77173233032227 0 -34.30197525024414
v 48.91910552978516 0 -34.30197525024414
v 38.51951217651367 0 -23.8536262512207
v 48.91910552978516 0 -13.4052791595459
v 55.77173233032227 0 -13.4052791595459
v 47.90283966064453 0 -21.31106376647949
v 63.54718780517578 0 -21.31106376647949
v 63.54718780517578 2.5 -23.8536262512207
v 63.54718780517578 2.5 -26.39618873596191
v 47.90283966064453 2.5 -26.39618873596191
v 55.77173233032227 2.5 -34.30197525024414
v 48.91910552978516 2.5 -34.30197525024414
v 38.51951217651367 2.5 -23.8536262512207
v 48.91910552978516 2.5 -13.4052791595459
v 55.77173233032227 2.5 -13.4052791595459
v 47.90283966064453 2.5 -21.31106376647949
v 63.54718780517578 2.5 -21.31106376647949
vt 0 0
vt 0 0.5282206535339355
vt 0.02495854906737804 0
vt 0.02495854906737804 0.5282206535339355
vt 0.02495854906737804 0
vt 0.02495854906737804 0.5282206535339355
vt 0.1785281002521515 0
vt 0.1785281002521515 0.5282206535339355
vt 0.1785281002521515 0
vt 0.1785281002521515 0.5282206535339355
vt 0.2880231142044067 0
vt 0.2880231142044067 0.5282206535339355
vt 0.2880231142044067 0
vt 0.2880231142044067 0.5282206535339355
vt 0.3552905321121216 0
vt 0.3552905321121216 0.5282206535339355
vt 0.3552905321121216 0
vt 0.3552905321121216 0.5282206535339355
vt 0.5 0
vt 0.5 0.5282206535339355
vt 0.5 0
vt 0.5 0.5282206535339355
vt 0.6447094678878784 0
vt 0.6447094678878784 0.5282206535339355
vt 0.6447094678878784 0
vt 0.6447094678878784 0.5282206535339355
vt 0.7119768857955933 0
vt 0.7119768857955933 0.5282206535339355
vt 0.7119768857955933 0
vt 0.7119768857955933 0.5282206535339355
vt 0.8214719295501709 0
vt 0.8214719295501709 0.5282206535339355
vt 0.8214719295501709 0
vt 0.8214719295501709 0.5282206535339355
vt 0.9750414490699768 0
vt 0.9750414490699768 0.5282206535339355
vt 0.9750414490699768 0
vt 0.9750414490699768 0.5282206535339355
vt 1 0
vt 1 0.5282206535339355
vt 0 0.7641105651855469
vt 1.394979354926495e-16 0.821513295173645
vt 0.1535695493221283 0.821513295173645
vt 0.0763261467218399 1
vt 0.1435935646295547 1
vt 0.2456790506839752 0.7641105651855469
vt 0.1435935646295547 0.5282211899757385
vt 0.0763261467218399 0.5282211899757385
vt 0.1535695493221283 0.7067078351974487
vt 1.394979354926495e-16 0.7067078351974487
vt 0 0.7641105651855469
vt 1.394979354926495e-16 0.7067078351974487
vt 0.1535695493221283 0.7067078351974487
vt 0.0763261467218399 0.5282211899757385
vt 0.1435935646295547 0.5282211899757385
vt 0.2456790506839752 0.7641105651855469
vt 0.1435935646295547 1
vt 0.0763261467218399 1
vt 0.1535695493221283 0.821513295173645
vt 1.394979354926495e-16 0.821513295173645
vn 1 0 -2.794592297711827e-15
vn 1 0 -2.794592297711827e-15
vn 1 0 -2.794592297711827e-15
vn 1 0 -2.794592297711827e-15
vn 0 0 -1
vn 0 0 -1
vn 0 0 -1
vn 0 0 -1
vn 0.7087584137916565 0 0.7054513096809387
vn 0.7087584137916565 0 0.7054513096809387
vn 0.7087584137916565 0 0.7054513096809387
vn 0.7087584137916565 0 0.7054513096809387
vn 0 0 -1
vn 0 0 -1
vn 0 0 -1
vn 0 0 -1
vn -0.7087584137916565 0 -0.7054513096809387
vn -0.7087584137916565 0 -0.7054513096809387
vn -0.7087584137916565 0 -0.7054513096809387
vn -0.7087584137916565 0 -0.7054513096809387
vn -0.7087584137916565 0 0.7054513096809387
vn -0.7087584137916565 0 0.7054513096809387
vn -0.7087584137916565 0 0.7054513096809387
vn -0.7087584137916565 0 0.7054513096809387
vn 0 0 1
vn 0 0 1
vn 0 0 1
vn 0 0 1
vn 0.7087584137916565 0 -0.7054513096809387
vn 0.7087584137916565 0 -0.7054513096809387
vn 0.7087584137916565 0 -0.7054513096809387
vn 0.7087584137916565 0 -0.7054513096809387
vn 4.541848896692682e-16 0 1
vn 4.541848896692682e-16 0 1
vn 4.541848896692682e-16 0 1
vn 4.541848896692682e-16 0 1
vn 1 0 5.589184595423654e-15
vn 1 0 5.589184595423654e-15
vn 1 0 5.589184595423654e-15
vn 1 0 5.589184595423654e-15
vn 0 -1 0
vn 0 -1 0
vn 0 -1 0
vn 0 -1 0
vn 0 -1 0
vn 0 -1 0
vn 0 -1 0
vn 0 -1 0
vn 0 -1 0
vn 0 -1 0
vn 0 1 0
vn 0 1 0
vn 0 1 0
vn 0 1 0
vn 0 1 0
vn 0 1 0
vn 0 1 0
vn 0 1 0
vn 0 1 0
vn 0 1 0
f 1/1/1 3/3/3 4/4/4 2/2/2
f 5/5/5 7/7/7 8/8/8 6/6/6
f 9/9/9 11/11/11 12/12/12 10/10/10
f 13/13/13 15/15/15 16/16/16 14/14/14
f 17/17/17 19/19/19 20/20/20 18/18/18
f 21/21/21 23/23/23 24/24/24 22/22/22
f 25/25/25 27/27/27 28/28/28 26/26/26
f 29/29/29 31/31/31 32/32/32 30/30/30
f 33/33/33 35/35/35 36/36/36 34/34/34
f 37/37/37 39/39/39 40/40/40 38/38/38
f 43/43/43 42/42/42 41/41/41
f 50/50/50 49/49/49 41/41/41
f 43/43/43 41/41/41 49/49/49
f 46/46/46 45/45/45 43/43/43
f 46/46/46 49/49/49 47/47/47
f 49/49/49 48/48/48 47/47/47
f 43/43/43 49/49/49 46/46/46
f 45/45/45 44/44/44 43/43/43
f 53/53/53 51/51/51 52/52/52
f 60/60/60 51/51/51 59/59/59
f 53/53/53 59/59/59 51/51/51
f 56/56/56 53/53/53 55/55/55
f 56/56/56 57/57/57 59/59/59
f 59/59/59 57/57/57 58/58/58
f 53/53/53 56/56/56 59/59/59
f 55/55/55 53/53/53 54/54/54
