# Rhino

g object_1
v 10 0 -10
v 5 15 -5
v 10 0 0
v 0 0 -10
v 5 15 -5
v 0 0 0
v 0 0 -10
v 0 0 0
v 10 0 -10
v 10 0 0
v 5 15 -5
v 10 0 -10
v 0 0 -10
v 5 15 -5
v 10 0 0
v 0 0 0
vt 0.6355414390563965 0.4950980246067047
vt 0.7898370027542114 0.004901960957795382
vt 0.9441325068473816 0.4950980246067047
vt 0.3193136751651764 0.9936475157737732
vt 0.4736092388629913 0.504887580871582
vt 0.6279047727584839 0.9936475157737732
vt 0 0
vt 0 0.3100272119045258
vt 0.3100272119045258 0
vt 0.3100272119045258 0.3100272119045258
vt 0.15738146007061 0.504887580871582
vt 0.3116770088672638 0.9936475157737732
vt 0.003085911041125655 0.9936475157737732
vt 0.4712106883525848 0.004887599963694811
vt 0.6262242794036865 0.4936475455760956
vt 0.3161970674991608 0.4936475455760956
vn -0.9486833214759827 -0.3162277638912201 0
vn -0.9486833214759827 -0.3162277638912201 0
vn -0.9486833214759827 -0.3162277638912201 0
vn 0.9486833214759827 -0.3162277638912201 0
vn 0.9486833214759827 -0.3162277638912201 0
vn 0.9486833214759827 -0.3162277638912201 0
vn 0 1 0
vn 0 1 0
vn 0 1 0
vn 0 1 0
vn 0 -0.3162277638912201 0.9486833214759827
vn 0 -0.3162277638912201 0.9486833214759827
vn 0 -0.3162277638912201 0.9486833214759827
vn 0 -0.3162277638912201 -0.9486833214759827
vn 0 -0.3162277638912201 -0.9486833214759827
vn 0 -0.3162277638912201 -0.9486833214759827
f 3/3/3 2/2/2 1/1/1
f 6/6/6 4/4/4 5/5/5
f 8/8/8 10/10/10 9/9/9 7/7/7
f 12/12/12 11/11/11 13/13/13
f 15/15/15 16/16/16 14/14/14
