# Rhino

g object_1
v 10 0 -10
v 7.5 7.5 -7.5
v 5 15 -5
v 10 0 0
v 10 0 -5
v 7.5 7.5 -2.5
v 0 0 -10
v 2.5 7.5 -7.5
v 5 15 -5
v 0 0 0
v 0 0 -5
v 2.5 7.5 -2.5
v 0 0 -10
v 0 0 0
v 10 0 -10
v 10 0 0
v 10 0 -5
v 0 0 -5
v 5 0 0
v 5 0 -10
v 5 15 -5
v 7.5 7.5 -7.5
v 10 0 -10
v 0 0 -10
v 2.5 7.5 -7.5
v 5 0 -10
v 5 15 -5
v 7.5 7.5 -2.5
v 10 0 0
v 0 0 0
v 2.5 7.5 -2.5
v 5 0 0
vt 0.6355414390563965 0.4950980246067047
vt 0.712689220905304 0.25
vt 0.7898370027542114 0.004901960957795382
vt 0.9441325068473816 0.4950980246067047
vt 0.7898370027542114 0.4950980246067047
vt 0.8669847846031189 0.25
vt 0.3193136751651764 0.9936475157737732
vt 0.3964614570140839 0.749267578125
vt 0.4736092388629913 0.504887580871582
vt 0.6279047727584839 0.9936475157737732
vt 0.4736092388629913 0.9936475157737732
vt 0.5507569909095764 0.749267578125
vt 0 0
vt 0 0.3100272119045258
vt 0.3100272119045258 0
vt 0.3100272119045258 0.3100272119045258
vt 0.3100272119045258 0.1550136059522629
vt 0 0.1550136059522629
vt 0.1550136059522629 0.3100272119045258
vt 0.1550136059522629 0
vt 0.15738146007061 0.504887580871582
vt 0.2345292419195175 0.749267578125
vt 0.3116770088672638 0.9936475157737732
vt 0.003085911041125655 0.9936475157737732
vt 0.08023369312286377 0.749267578125
vt 0.15738146007061 0.9936475157737732
vt 0.4712106883525848 0.004887599963694811
vt 0.5487174987792969 0.249267578125
vt 0.6262242794036865 0.4936475455760956
vt 0.3161970674991608 0.4936475455760956
vt 0.3937038779258728 0.249267578125
vt 0.4712106883525848 0.4936475455760956
vn 0.9486833214759827 0.3162277638912201 0
vn 0.9486833214759827 0.3162277638912201 0
vn 0.9486833214759827 0.3162277638912201 0
vn 0.9486833214759827 0.3162277638912201 0
vn 0.9486833214759827 0.3162277638912201 0
vn 0.9486833214759827 0.3162277638912201 0
vn -0.9486833214759827 0.3162277638912201 0
vn -0.9486833214759827 0.3162277638912201 0
vn -0.9486833214759827 0.3162277638912201 0
vn -0.9486833214759827 0.3162277638912201 0
vn -0.9486833214759827 0.3162277638912201 0
vn -0.9486833214759827 0.3162277638912201 0
vn 0 -1 0
vn 0 -1 0
vn 0 -1 0
vn 0 -1 0
vn 0 -1 0
vn 0 -1 0
vn 0 -1 0
vn 0 -1 0
vn 0 0.3162277638912201 -0.9486833214759827
vn 0 0.3162277638912201 -0.9486833214759827
vn 0 0.3162277638912201 -0.9486833214759827
vn 0 0.3162277638912201 -0.9486833214759827
vn 0 0.3162277638912201 -0.9486833214759827
vn 0 0.3162277638912201 -0.9486833214759827
vn 0 0.3162277638912201 0.9486833214759827
vn 0 0.3162277638912201 0.9486833214759827
vn 0 0.3162277638912201 0.9486833214759827
vn 0 0.3162277638912201 0.9486833214759827
vn 0 0.3162277638912201 0.9486833214759827
vn 0 0.3162277638912201 0.9486833214759827
f 5/5/5 1/1/1 2/2/2
f 6/6/6 2/2/2 3/3/3
f 4/4/4 5/5/5 6/6/6
f 2/2/2 6/6/6 5/5/5
f 11/11/11 8/8/8 7/7/7
f 12/12/12 9/9/9 8/8/8
f 10/10/10 12/12/12 11/11/11
f 8/8/8 11/11/11 12/12/12
f 18/18/18 13/13/13 20/20/20
f 18/18/18 19/19/19 14/14/14
f 17/17/17 18/18/18 20/20/20
f 18/18/18 17/17/17 19/19/19
f 17/17/17 16/16/16 19/19/19
f 15/15/15 17/17/17 20/20/20
f 26/26/26 24/24/24 25/25/25
f 22/22/22 25/25/25 21/21/21
f 23/23/23 26/26/26 22/22/22
f 25/25/25 22/22/22 26/26/26
f 32/32/32 28/28/28 31/31/31 30/30/30
f 28/28/28 27/27/27 31/31/31
f 29/29/29 28/28/28 32/32/32
